<mxfile host="app.diagrams.net" agent="Mozilla/5.0 (Windows NT 10.0; Win64; x64) AppleWebKit/537.36 (KHTML, like Gecko) Chrome/139.0.0.0 Safari/537.36" version="28.1.0">
  <diagram name="Page-1" id="O-sZBEDEmAkVfUN_vd6D">
    <mxGraphModel dx="1148" dy="536" grid="1" gridSize="10" guides="1" tooltips="1" connect="1" arrows="1" fold="1" page="1" pageScale="1" pageWidth="850" pageHeight="1100" math="0" shadow="0">
      <root>
        <mxCell id="0" />
        <mxCell id="1" parent="0" />
        <mxCell id="isNekOpWwfA3UuepOM5H-3" style="edgeStyle=orthogonalEdgeStyle;rounded=0;orthogonalLoop=1;jettySize=auto;html=1;entryX=0.5;entryY=0;entryDx=0;entryDy=0;" edge="1" parent="1" source="isNekOpWwfA3UuepOM5H-1" target="isNekOpWwfA3UuepOM5H-2">
          <mxGeometry relative="1" as="geometry" />
        </mxCell>
        <mxCell id="isNekOpWwfA3UuepOM5H-16" style="edgeStyle=orthogonalEdgeStyle;dashed=1;rounded=0;orthogonalLoop=1;jettySize=auto;html=1;exitX=1;exitY=0;exitDx=0;exitDy=0;entryX=1;entryY=0.75;entryDx=0;entryDy=0;" edge="1" parent="1" source="isNekOpWwfA3UuepOM5H-1" target="isNekOpWwfA3UuepOM5H-9">
          <mxGeometry relative="1" as="geometry">
            <Array as="points">
              <mxPoint x="520" y="132" />
              <mxPoint x="520" y="500" />
            </Array>
          </mxGeometry>
        </mxCell>
        <mxCell id="isNekOpWwfA3UuepOM5H-1" value="Begin" style="ellipse;whiteSpace=wrap;html=1;" vertex="1" parent="1">
          <mxGeometry x="320" y="120" width="120" height="80" as="geometry" />
        </mxCell>
        <mxCell id="isNekOpWwfA3UuepOM5H-6" value="" style="edgeStyle=orthogonalEdgeStyle;rounded=0;orthogonalLoop=1;jettySize=auto;html=1;" edge="1" parent="1" source="isNekOpWwfA3UuepOM5H-2" target="isNekOpWwfA3UuepOM5H-4">
          <mxGeometry relative="1" as="geometry" />
        </mxCell>
        <mxCell id="isNekOpWwfA3UuepOM5H-2" value="Read N" style="rounded=0;whiteSpace=wrap;html=1;" vertex="1" parent="1">
          <mxGeometry x="320" y="240" width="120" height="60" as="geometry" />
        </mxCell>
        <mxCell id="isNekOpWwfA3UuepOM5H-10" value="" style="edgeStyle=orthogonalEdgeStyle;rounded=0;orthogonalLoop=1;jettySize=auto;html=1;" edge="1" parent="1" source="isNekOpWwfA3UuepOM5H-4" target="isNekOpWwfA3UuepOM5H-7">
          <mxGeometry relative="1" as="geometry" />
        </mxCell>
        <mxCell id="isNekOpWwfA3UuepOM5H-13" value="" style="edgeStyle=orthogonalEdgeStyle;rounded=0;orthogonalLoop=1;jettySize=auto;html=1;" edge="1" parent="1" source="isNekOpWwfA3UuepOM5H-4" target="isNekOpWwfA3UuepOM5H-9">
          <mxGeometry relative="1" as="geometry" />
        </mxCell>
        <mxCell id="isNekOpWwfA3UuepOM5H-4" value="&amp;lt;=1 ?" style="rhombus;whiteSpace=wrap;html=1;" vertex="1" parent="1">
          <mxGeometry x="320" y="330" width="120" height="60" as="geometry" />
        </mxCell>
        <mxCell id="isNekOpWwfA3UuepOM5H-21" style="edgeStyle=orthogonalEdgeStyle;rounded=0;orthogonalLoop=1;jettySize=auto;html=1;entryX=0;entryY=0.5;entryDx=0;entryDy=0;" edge="1" parent="1" source="isNekOpWwfA3UuepOM5H-7" target="isNekOpWwfA3UuepOM5H-19">
          <mxGeometry relative="1" as="geometry">
            <Array as="points">
              <mxPoint x="240" y="600" />
            </Array>
          </mxGeometry>
        </mxCell>
        <mxCell id="isNekOpWwfA3UuepOM5H-7" value="return n" style="rounded=0;whiteSpace=wrap;html=1;" vertex="1" parent="1">
          <mxGeometry x="200" y="330" width="80" height="60" as="geometry" />
        </mxCell>
        <mxCell id="isNekOpWwfA3UuepOM5H-14" style="edgeStyle=orthogonalEdgeStyle;dashed=1;rounded=0;orthogonalLoop=1;jettySize=auto;html=1;exitX=1;exitY=0.25;exitDx=0;exitDy=0;entryX=1;entryY=1;entryDx=0;entryDy=0;" edge="1" parent="1" source="isNekOpWwfA3UuepOM5H-9" target="isNekOpWwfA3UuepOM5H-1">
          <mxGeometry relative="1" as="geometry">
            <Array as="points">
              <mxPoint x="480" y="460" />
              <mxPoint x="480" y="188" />
            </Array>
          </mxGeometry>
        </mxCell>
        <mxCell id="isNekOpWwfA3UuepOM5H-20" value="" style="edgeStyle=orthogonalEdgeStyle;rounded=0;orthogonalLoop=1;jettySize=auto;html=1;" edge="1" parent="1" source="isNekOpWwfA3UuepOM5H-9" target="isNekOpWwfA3UuepOM5H-19">
          <mxGeometry relative="1" as="geometry" />
        </mxCell>
        <mxCell id="isNekOpWwfA3UuepOM5H-9" value="return F(n-1)+F(n-2)" style="rounded=0;whiteSpace=wrap;html=1;" vertex="1" parent="1">
          <mxGeometry x="320" y="440" width="120" height="80" as="geometry" />
        </mxCell>
        <mxCell id="isNekOpWwfA3UuepOM5H-17" value="feedback result" style="text;strokeColor=none;align=center;fillColor=none;html=1;verticalAlign=middle;whiteSpace=wrap;rounded=0;" vertex="1" parent="1">
          <mxGeometry x="520" y="290" width="70" height="30" as="geometry" />
        </mxCell>
        <mxCell id="isNekOpWwfA3UuepOM5H-18" value="call F(n-1), F(n-2)" style="text;strokeColor=none;align=center;fillColor=none;html=1;verticalAlign=middle;whiteSpace=wrap;rounded=0;" vertex="1" parent="1">
          <mxGeometry x="420" y="310" width="60" height="30" as="geometry" />
        </mxCell>
        <mxCell id="isNekOpWwfA3UuepOM5H-19" value="End" style="ellipse;whiteSpace=wrap;html=1;" vertex="1" parent="1">
          <mxGeometry x="320" y="560" width="120" height="80" as="geometry" />
        </mxCell>
      </root>
    </mxGraphModel>
  </diagram>
</mxfile>
